control3min_grf.mot
version=1
nRows=27
nColumns 19
inDegrees=yes
endheader
time	1_ground_force_vx	1_ground_force_vy	1_ground_force_vz	1_ground_force_px	1_ground_force_py	1_ground_force_pz	1_ground_torque_x	1_ground_torque_y	1_ground_torque_z	2_ground_force_vx	2_ground_force_vy	2_ground_force_vz	2_ground_force_px	2_ground_force_py	2_ground_force_pz	2_ground_torque_x	2_ground_torque_y	2_ground_torque_z
            1.253500	           -3.140771	          336.806541	          -57.107602	           -0.191362	            0.005665	           -0.273417	           -0.028021	            3.004853	           -0.509491	            5.917617	          419.992760	           74.516389	           -0.212687	            0.005696	           -0.692179	           -0.085684	           -6.081272	           -1.078958
            1.254000	           -2.864290	          333.380140	          -56.801976	           -0.191073	            0.005665	           -0.273332	           -0.025594	            2.978940	           -0.507558	            5.791380	          415.943546	           73.798079	           -0.212523	            0.005695	           -0.691835	           -0.083799	           -6.018547	           -1.067830
            1.254500	           -2.680002	          330.855670	          -56.629829	           -0.190906	            0.005664	           -0.273215	           -0.023919	            2.952837	           -0.505413	            5.849885	          412.631510	           73.082303	           -0.212201	            0.005698	           -0.692200	           -0.084849	           -5.984997	           -1.060019
            1.255000	           -2.587335	          327.970650	          -56.459000	           -0.190912	            0.005664	           -0.273117	           -0.022498	            2.851854	           -0.490937	            6.000821	          409.687653	           72.508593	           -0.212325	            0.005697	           -0.692015	           -0.087993	           -6.007460	           -1.063231
            1.255500	           -2.540492	          324.364756	          -56.337009	           -0.190445	            0.005665	           -0.273299	           -0.022029	            2.812589	           -0.488502	            6.013764	          406.007562	           71.697682	           -0.212487	            0.005696	           -0.691934	           -0.088556	           -5.978667	           -1.055785
            1.256000	           -2.492432	          322.198431	          -55.612704	           -0.190663	            0.005664	           -0.273143	           -0.020459	            2.644738	           -0.456492	            5.979172	          402.511549	           70.840512	           -0.211899	            0.005698	           -0.691777	           -0.088934	           -5.986921	           -1.053676
            1.256500	           -2.307054	          319.311660	          -55.029395	           -0.190403	            0.005664	           -0.273222	           -0.018740	            2.593768	           -0.447004	            5.897812	          399.014759	           70.171074	           -0.211841	            0.005699	           -0.692083	           -0.087702	           -5.933485	           -1.043468
            1.257000	           -1.800496	          315.523456	          -54.404896	           -0.190113	            0.005664	           -0.273042	           -0.014866	            2.605181	           -0.449205	            5.912167	          394.965656	           69.546546	           -0.211922	            0.005698	           -0.691917	           -0.088539	           -5.914919	           -1.041514
            1.257500	           -1.386262	          313.358185	          -53.910785	           -0.190200	            0.005663	           -0.272906	           -0.011389	            2.574513	           -0.442924	            5.877636	          391.469203	           68.830168	           -0.211399	            0.005699	           -0.691558	           -0.087441	           -5.823834	           -1.023977
            1.258000	           -1.202169	          310.653811	          -53.831122	           -0.190323	            0.005663	           -0.272922	           -0.010053	            2.597724	           -0.450142	            5.841214	          388.524334	           68.350394	           -0.211505	            0.005700	           -0.692074	           -0.086802	           -5.773598	           -1.015709
            1.258500	           -0.925689	          307.227471	          -53.525496	           -0.189663	            0.005662	           -0.272581	           -0.007580	            2.515679	           -0.438284	            5.902357	          384.475903	           67.585069	           -0.211517	            0.005698	           -0.691517	           -0.089195	           -5.810106	           -1.021329
            1.259000	           -1.198495	          303.619352	          -52.898290	           -0.189814	            0.005662	           -0.272643	           -0.009871	            2.500657	           -0.435679	            6.007691	          381.164264	           66.822352	           -0.211397	            0.005698	           -0.691518	           -0.091460	           -5.802773	           -1.017291
            1.259500	           -0.967812	          301.814773	          -52.448029	           -0.189619	            0.005662	           -0.272552	           -0.007854	            2.449369	           -0.425640	            6.068169	          377.299974	           66.057684	           -0.211271	            0.005698	           -0.691263	           -0.093889	           -5.837718	           -1.022068
            1.260000	           -1.240768	          299.648583	          -51.768787	           -0.189836	            0.005661	           -0.272460	           -0.009835	            2.375093	           -0.410333	            5.794174	          375.275024	           65.581295	           -0.211331	            0.005700	           -0.691784	           -0.089524	           -5.798271	           -1.013279
            1.260500	           -0.688415	          295.499993	          -51.191800	           -0.189325	            0.005661	           -0.272350	           -0.005575	            2.392944	           -0.414549	            6.183869	          371.044138	           64.674382	           -0.211004	            0.005700	           -0.691499	           -0.096420	           -5.785380	           -1.008413
            1.261000	           -0.686621	          293.154210	          -50.651578	           -0.189172	            0.005660	           -0.272151	           -0.005599	            2.390716	           -0.413071	            5.727231	          367.728629	           64.428114	           -0.210808	            0.005700	           -0.691471	           -0.088073	           -5.654901	           -0.990770
            1.261500	            0.323718	          290.808561	          -50.113858	           -0.189363	            0.005660	           -0.272244	            0.002584	            2.321630	           -0.400077	            5.690185	          364.967566	           64.042853	           -0.210668	            0.005702	           -0.691730	           -0.087285	           -5.598471	           -0.982394
            1.262000	            0.416042	          289.185629	          -49.983479	           -0.189430	            0.005661	           -0.272317	            0.003329	            2.314182	           -0.399988	            5.561914	          361.471108	           63.232651	           -0.210617	            0.005701	           -0.691445	           -0.086373	           -5.613425	           -0.981964
            1.262500	            0.601211	          285.578385	          -49.540834	           -0.189049	            0.005660	           -0.272067	            0.004627	            2.197628	           -0.381234	            5.576892	          357.238200	           62.513617	           -0.209915	            0.005702	           -0.691074	           -0.086649	           -5.550446	           -0.971280
            1.263000	            0.372912	          283.053834	          -49.367663	           -0.188944	            0.005660	           -0.272196	            0.002906	            2.205848	           -0.384724	            5.585326	          354.845923	           62.035794	           -0.210471	            0.005700	           -0.691071	           -0.088656	           -5.632490	           -0.984698
            1.263500	            0.742360	          280.706489	          -48.461503	           -0.188740	            0.005659	           -0.271922	            0.005808	            2.195988	           -0.379118	            5.739442	          350.982472	           61.130302	           -0.210309	            0.005701	           -0.691221	           -0.091648	           -5.604527	           -0.976136
            1.264000	            0.606724	          277.819852	          -47.923258	           -0.188587	            0.005659	           -0.271880	            0.004747	            2.173530	           -0.374929	            5.655506	          348.221636	           60.651205	           -0.210107	            0.005702	           -0.691273	           -0.090160	           -5.551328	           -0.966898
            1.264500	            0.607949	          275.475053	          -47.612312	           -0.188611	            0.005658	           -0.271700	            0.004810	            2.179624	           -0.376720	            5.572899	          345.092397	           60.170794	           -0.209951	            0.005704	           -0.691613	           -0.089873	           -5.565211	           -0.970358
            1.265000	            1.205977	          273.489266	          -46.934459	           -0.188717	            0.005659	           -0.271902	            0.009405	            2.132952	           -0.366043	            5.494403	          340.857370	           59.968009	           -0.209570	            0.005703	           -0.690947	           -0.088663	           -5.500399	           -0.967701
            1.265500	            1.528887	          269.341085	          -46.448614	           -0.188663	            0.005658	           -0.271651	            0.012196	            2.148542	           -0.370522	            5.176718	          337.912825	           59.112930	           -0.209688	            0.005702	           -0.690854	           -0.083665	           -5.461242	           -0.955365
            1.266000	            1.896626	          268.258186	          -46.133175	           -0.188359	            0.005659	           -0.271939	            0.014451	            2.044007	           -0.351514	            5.280908	          334.967962	           58.773880	           -0.209363	            0.005705	           -0.691176	           -0.086248	           -5.470732	           -0.959901
            1.266500	            1.577896	          264.469958	          -45.552480	           -0.188108	            0.005659	           -0.271810	            0.011699	            1.960851	           -0.337738	            5.105184	          331.654913	           58.105139	           -0.209355	            0.005704	           -0.691100	           -0.082868	           -5.383467	           -0.943170
